<svg width="430.4540161132812px" height="87.6080093383789px" xmlns="http://www.w3.org/2000/svg" viewBox="34.772991943359386 31.195995330810547 430.4540161132812 87.6080093383789" style="background: rgb(0, 0, 0);" preserveAspectRatio="xMidYMid"><defs><filter id="editing-hover" x="-100%" y="-100%" width="300%" height="300%"><feFlood flood-color="#052b4a" result="flood"></feFlood><feComposite operator="in" in2="SourceAlpha" in="flood" result="shadow"></feComposite><feOffset dx="-2.7" dy="-1.7" in="SourceGraphic" result="offset-1"></feOffset><feOffset dx="2.7" dy="1.7" in="shadow" result="offset-2"></feOffset><feMerge><feMergeNode in="offset-2"></feMergeNode><feMergeNode in="offset-1"></feMergeNode></feMerge></filter></defs><g filter="url(#editing-hover)"><g transform="translate(12.144990801811218, 107.35499954223633)"><path d="M22.27-35.46L22.27-35.46L22.53-37.44L22.53-37.44Q22.53-40.38 20.22-41.22L20.22-41.22L20.22-41.22Q18.43-41.79 17.47-41.79L17.47-41.79L17.41-41.79L17.41-41.79Q15.49-41.79 14.08-41.18L14.08-41.18L14.08-41.18Q12.67-40.58 12.03-39.68L12.03-39.68L12.03-39.68Q10.69-37.82 10.50-35.78L10.50-35.78L10.50-35.78Q10.50-33.34 12.67-31.58L12.67-31.58L12.67-31.58Q14.85-29.82 17.95-28.51L17.95-28.51L17.95-28.51Q21.06-27.20 24.16-25.66L24.16-25.66L24.16-25.66Q27.26-24.13 29.44-21.25L29.44-21.25L29.44-21.25Q31.62-18.37 31.62-14.34L31.62-14.34L31.62-14.34Q31.62-6.46 26.66-2.56L26.66-2.56L26.66-2.56Q21.70 1.34 15.39 1.34L15.39 1.34L15.39 1.34Q9.09 1.34 4.96-1.50L4.96-1.50L4.96-1.50Q0.83-4.35 0.83-9.15L0.83-9.15L0.83-9.22L0.83-9.22Q0.83-11.58 1.57-13.34L1.57-13.34L1.57-13.34Q2.30-15.10 3.33-15.94L3.33-15.94L3.33-15.94Q5.44-17.66 7.17-17.79L7.17-17.79L7.94-17.86L7.94-17.86Q9.73-17.86 11.20-16.99L11.20-16.99L11.20-16.99Q12.67-16.13 12.67-14.59L12.67-14.59L12.67-14.59Q12.67-13.82 11.84-13.31L11.84-13.31L11.84-13.31Q11.01-12.80 10.40-11.78L10.40-11.78L10.40-11.78Q9.79-10.75 9.73-10.05L9.73-10.05L9.60-9.34L9.60-9.34Q9.60-5.44 13.18-4.16L13.18-4.16L13.18-4.16Q14.46-3.71 15.23-3.71L15.23-3.71L15.23-3.71Q18.75-3.71 20.90-5.82L20.90-5.82L20.90-5.82Q23.04-7.94 23.04-11.20L23.04-11.20L23.04-11.20Q23.04-15.10 19.71-17.54L19.71-17.54L19.71-17.54Q17.22-19.33 14.30-20.54L14.30-20.54L14.30-20.54Q11.39-21.76 10.37-22.27L10.37-22.27L10.37-22.27Q9.34-22.78 8.19-23.49L8.19-23.49L8.19-23.49Q7.04-24.19 5.63-25.47L5.63-25.47L5.63-25.47Q2.56-28.16 2.56-32.74L2.56-32.74L2.56-32.74Q2.56-37.31 5.06-40.45L5.06-40.45L5.06-40.45Q9.54-46.14 18.50-46.14L18.50-46.14L18.50-46.14Q23.23-46.14 26.50-44.32L26.50-44.32L26.50-44.32Q29.76-42.50 29.76-39.30L29.76-39.30L29.76-39.30Q29.76-36.99 28.45-35.46L28.45-35.46L28.45-35.46Q27.14-33.92 25.09-33.92L25.09-33.92L25.09-33.92Q24.13-33.92 23.20-34.30L23.20-34.30L23.20-34.30Q22.27-34.69 22.27-35.46ZM40.64-16.26L40.64-16.26L40.70-14.66L40.70-14.66Q40.70-14.27 41.22-14.27L41.22-14.27L41.22-14.27Q43.26-14.46 44.80-15.33L44.80-15.33L44.80-15.33Q46.34-16.19 47.10-17.28L47.10-17.28L47.10-17.28Q48.64-19.65 48.77-21.38L48.77-21.38L48.83-22.14L48.83-22.14Q48.83-25.60 46.08-25.60L46.08-25.60L46.08-25.60Q44.03-25.60 42.75-23.81L42.75-23.81L42.75-23.81Q40.64-20.99 40.64-16.26ZM54.59-7.74L54.59-7.74L54.59-7.74Q54.59-5.31 53.60-3.49L53.60-3.49L53.60-3.49Q52.61-1.66 51.36-0.80L51.36-0.80L51.36-0.80Q50.11 0.06 48.45 0.58L48.45 0.58L48.45 0.58Q46.34 1.22 44.42 1.22L44.42 1.22L44.42 1.22Q39.04 1.22 36.48-2.82L36.48-2.82L36.48-2.82Q33.92-6.85 33.92-13.09L33.92-13.09L33.92-13.09Q33.92-19.33 37.09-24.19L37.09-24.19L37.09-24.19Q40.26-29.06 46.59-29.06L46.59-29.06L46.59-29.06Q52.35-29.06 54.40-25.02L54.40-25.02L54.40-25.02Q55.23-23.49 55.23-22.11L55.23-22.11L55.23-22.11Q55.23-20.74 55.10-19.94L55.10-19.94L55.10-19.94Q54.98-19.14 54.21-17.54L54.21-17.54L54.21-17.54Q53.44-15.94 52.16-14.66L52.16-14.66L52.16-14.66Q50.88-13.38 48.13-12.22L48.13-12.22L48.13-12.22Q45.38-11.07 41.66-10.69L41.66-10.69L41.66-10.69Q41.15-10.69 41.15-10.24L41.15-10.24L41.15-10.24Q41.15-9.66 41.57-8.54L41.57-8.54L41.57-8.54Q41.98-7.42 42.50-6.66L42.50-6.66L42.50-6.66Q43.90-4.86 46.66-4.86L46.66-4.86L46.66-4.86Q49.41-4.86 51.33-6.66L51.33-6.66L51.33-6.66Q52.35-7.62 52.99-9.02L52.99-9.02L52.99-9.02Q53.25-9.54 53.66-9.54L53.66-9.54L53.66-9.54Q54.08-9.54 54.34-8.83L54.34-8.83L54.34-8.83Q54.59-8.13 54.59-7.74ZM70.40-22.08L70.40-22.08L68.93-21.70L68.93-21.70Q67.78-21.70 67.78-23.84L67.78-23.84L67.78-23.84Q67.78-25.98 69.34-27.30L69.34-27.30L69.34-27.30Q70.91-28.61 73.34-28.61L73.34-28.61L73.34-28.61Q74.69-28.61 76.22-27.81L76.22-27.81L76.22-27.81Q77.76-27.01 78.78-25.82L78.78-25.82L78.78-25.82Q79.81-24.64 80.61-22.11L80.61-22.11L80.61-22.11Q81.41-19.58 81.41-16.19L81.41-16.19L81.41-16.19Q81.41-8.38 77.22-3.52L77.22-3.52L77.22-3.52Q73.02 1.34 65.09 1.34L65.09 1.34L65.09 1.34Q62.78 1.34 60.54 0.90L60.54 0.90L59.90 0.77L59.90 0.77Q59.07 0.51 58.94-0.13L58.94-0.13L58.94-0.13Q58.75-1.47 58.75-6.46L58.75-6.46L59.14-27.20L59.14-27.20Q59.14-32 58.88-34.56L58.88-34.56L58.75-35.46L58.75-35.46Q58.62-37.25 58.02-38.53L58.02-38.53L58.02-38.53Q57.41-39.81 56.83-40.19L56.83-40.19L56.32-40.51L56.32-40.51Q55.87-40.77 55.87-41.09L55.87-41.09L55.87-41.09Q55.87-42.05 59.07-43.36L59.07-43.36L59.07-43.36Q62.27-44.67 63.74-44.67L63.74-44.67L63.74-44.67Q65.22-44.67 65.28-43.90L65.28-43.90L65.28-43.90Q65.73-40 65.73-32.77L65.73-32.77L65.41-17.41L65.41-17.41Q65.41-7.36 65.98-3.52L65.98-3.52L65.98-3.52Q66.05-2.62 68-2.62L68-2.62L68-2.62Q69.95-2.62 71.36-3.71L71.36-3.71L71.36-3.71Q72.77-4.80 73.47-6.59L73.47-6.59L73.47-6.59Q74.75-9.86 74.75-13.82L74.75-13.82L74.75-13.82Q74.75-15.68 74.24-17.86L74.24-17.86L74.24-17.86Q73.34-22.08 70.40-22.08ZM105.66-19.20L105.66-19.20L105.54-11.01L105.54-11.01Q105.54-2.50 107.39-0.77L107.39-0.77L107.39-0.77Q107.65-0.51 107.65-0.19L107.65-0.19L107.65-0.19Q107.65 0.77 103.52 0.77L103.52 0.77L103.52 0.77Q99.39 0.77 99.14-1.66L99.14-1.66L99.14-1.66Q99.07-2.24 99.07-4.03L99.07-4.03L99.33-14.27L99.33-14.27Q99.33-14.72 98.82-14.72L98.82-14.72L98.82-14.72Q95.74-14.72 93.06-12.99L93.06-12.99L93.06-12.99Q90.37-11.26 90.37-8.58L90.37-8.58L90.37-8.58Q90.37-7.17 91.14-6.21L91.14-6.21L91.14-6.21Q91.90-5.25 93.02-5.25L93.02-5.25L93.02-5.25Q94.14-5.25 94.88-5.70L94.88-5.70L94.88-5.70Q95.62-6.14 95.74-6.21L95.74-6.21L95.74-6.21Q96.83-6.08 96.83-3.94L96.83-3.94L96.83-3.94Q96.83-1.79 94.85-0.48L94.85-0.48L94.85-0.48Q92.86 0.83 90.69 0.83L90.69 0.83L90.69 0.83Q88.51 0.83 86.94 0.06L86.94 0.06L86.94 0.06Q85.38-0.70 84.67-1.66L84.67-1.66L84.67-1.66Q83.97-2.62 83.52-3.84L83.52-3.84L83.52-3.84Q83.07-5.31 83.07-6.40L83.07-6.40L83.07-6.40Q83.07-10.88 85.89-13.57L85.89-13.57L85.89-13.57Q88.70-16.26 93.12-17.41L93.12-17.41L93.12-17.41Q98.94-18.56 99.20-19.52L99.20-19.52L99.20-19.52Q99.39-20.22 99.39-21.89L99.39-21.89L99.39-21.89Q99.39-25.28 95.94-25.28L95.94-25.28L95.94-25.28Q94.46-25.28 93.31-24.35L93.31-24.35L93.31-24.35Q92.16-23.42 92.16-22.02L92.16-22.02L92.54-20.48L92.54-20.48Q92.42-19.39 90.24-19.20L90.24-19.20L89.54-19.14L89.54-19.14Q87.62-19.14 86.50-20.10L86.50-20.10L86.50-20.10Q85.38-21.06 85.38-22.66L85.38-22.66L85.38-22.66Q85.38-23.68 86.05-24.93L86.05-24.93L86.05-24.93Q86.72-26.18 87.74-26.94L87.74-26.94L87.74-26.94Q88.77-27.71 90.91-28.32L90.91-28.32L90.91-28.32Q93.06-28.93 95.04-28.93L95.04-28.93L95.04-28.93Q97.02-28.93 98.11-28.80L98.11-28.80L98.11-28.80Q99.20-28.67 101.09-28.19L101.09-28.19L101.09-28.19Q102.98-27.71 104.22-26.37L104.22-26.37L104.22-26.37Q105.47-25.02 105.57-23.52L105.57-23.52L105.57-23.52Q105.66-22.02 105.66-19.20ZM129.02-8.77L129.02-8.77L129.02-8.77Q129.02-6.02 127.97-3.97L127.97-3.97L127.97-3.97Q126.91-1.92 125.57-0.96L125.57-0.96L125.57-0.96Q124.22 0 122.37 0.58L122.37 0.58L122.37 0.58Q119.94 1.34 117.95 1.34L117.95 1.34L117.95 1.34Q113.79 1.34 111.04-0.29L111.04-0.29L111.04-0.29Q108.29-1.92 108.29-5.50L108.29-5.50L108.29-5.50Q108.29-7.62 109.44-8.96L109.44-8.96L109.44-8.96Q111.23-10.94 113.73-10.94L113.73-10.94L113.73-10.94Q114.50-10.94 114.50-10.24L114.50-10.24L114.50-10.24Q114.50-10.18 114.21-9.25L114.21-9.25L114.21-9.25Q113.92-8.32 113.92-6.91L113.92-6.91L113.92-6.91Q113.92-5.50 115.04-4.42L115.04-4.42L115.04-4.42Q116.16-3.33 117.76-3.33L117.76-3.33L117.76-3.33Q119.36-3.33 120.32-3.87L120.32-3.87L120.32-3.87Q121.28-4.42 121.66-5.25L121.66-5.25L121.66-5.25Q122.24-6.40 122.24-7.42L122.24-7.42L122.24-7.42Q122.24-9.28 120.38-10.62L120.38-10.62L120.38-10.62Q118.53-11.97 116.29-12.74L116.29-12.74L116.29-12.74Q114.05-13.50 112.19-15.30L112.19-15.30L112.19-15.30Q110.34-17.09 110.34-19.78L110.34-19.78L110.34-19.78Q110.34-24.38 113.25-26.69L113.25-26.69L113.25-26.69Q116.16-28.99 121.15-28.99L121.15-28.99L121.15-28.99Q123.33-28.99 125.73-28.38L125.73-28.38L125.73-28.38Q128.13-27.78 128.13-26.34L128.13-26.34L128.13-26.34Q128.13-24.90 127.65-23.68L127.65-23.68L127.65-23.68Q127.17-22.46 126.46-22.46L126.46-22.46L126.46-22.46Q126.08-22.46 125.95-22.75L125.95-22.75L125.95-22.75Q125.82-23.04 125.50-23.42L125.50-23.42L125.50-23.42Q125.18-23.81 123.97-24.42L123.97-24.42L123.97-24.42Q122.75-25.02 121.89-25.02L121.89-25.02L121.89-25.02Q121.02-25.02 120.74-24.99L120.74-24.99L120.74-24.99Q120.45-24.96 119.74-24.80L119.74-24.80L119.74-24.80Q119.04-24.64 118.46-24.32L118.46-24.32L118.46-24.32Q116.99-23.49 116.99-21.89L116.99-21.89L116.99-21.89Q116.99-20.86 117.44-20.38L117.44-20.38L117.44-20.38Q117.89-19.90 118.14-19.65L118.14-19.65L118.14-19.65Q118.40-19.39 119.04-19.04L119.04-19.04L119.04-19.04Q119.68-18.69 119.94-18.56L119.94-18.56L119.94-18.56Q120.19-18.43 121.09-18.02L121.09-18.02L121.09-18.02Q121.98-17.60 122.24-17.47L122.24-17.47L122.24-17.47Q129.02-14.27 129.02-8.77ZM130.62-24.96L130.62-24.96L130.82-27.52L130.82-27.52Q130.88-28.10 131.71-28.10L131.71-28.10L133.95-28.10L133.70-33.22L133.70-33.47L133.70-33.47Q133.70-34.94 135.94-36.29L135.94-36.29L135.94-36.29Q138.18-37.63 140.03-37.63L140.03-37.63L140.03-37.63Q140.61-37.63 140.61-37.12L140.61-37.12L140.61-37.06L140.61-37.06Q140.35-35.33 140.10-28.16L140.10-28.16L140.10-28.16Q142.91-28.16 143.68-28.29L143.68-28.29L143.68-28.29Q144.45-28.42 144.51-28.42L144.51-28.42L144.51-28.42Q144.96-28.42 144.96-27.65L144.96-27.65L144.96-27.65Q144.96-26.88 144.26-25.70L144.26-25.70L144.26-25.70Q143.55-24.51 142.72-24.45L142.72-24.45L140.03-24.45L140.03-24.45Q139.97-22.27 139.97-17.12L139.97-17.12L139.97-17.12Q139.97-11.97 140.06-8.64L140.06-8.64L140.06-8.64Q140.16-5.31 140.29-3.62L140.29-3.62L140.29-3.62Q140.42-1.92 140.58-0.90L140.58-0.90L140.58-0.90Q140.74 0.13 140.83 0.58L140.83 0.58L140.83 0.58Q140.93 1.02 140.93 1.15L140.93 1.15L140.93 1.15Q140.93 1.79 140.10 1.86L140.10 1.86L140.10 1.86Q137.60 1.86 135.14 1.15L135.14 1.15L135.14 1.15Q132.67 0.45 132.67-1.28L132.67-1.28L132.67-1.28Q134.02-12.03 134.02-24.38L134.02-24.38L134.02-24.38Q132.29-24.38 131.39-24.26L131.39-24.26L131.33-24.26L131.33-24.26Q130.75-24.26 130.62-24.96ZM152.51-34.24L152.51-34.24L150.98-34.30L150.98-34.30Q149.25-34.30 148.74-33.47L148.74-33.47L148.74-33.47Q148.61-33.28 148.42-33.28L148.42-33.28L148.42-33.28Q147.58-33.28 147.58-36.13L147.58-36.13L147.58-36.13Q147.58-38.98 148.45-39.74L148.45-39.74L148.45-39.74Q149.31-40.51 151.46-40.51L151.46-40.51L151.46-40.51Q153.60-40.51 154.37-39.78L154.37-39.78L154.37-39.78Q155.14-39.04 155.14-37.31L155.14-37.31L155.14-37.31Q155.14-35.58 154.56-34.91L154.56-34.91L154.56-34.91Q153.98-34.24 152.51-34.24ZM147.39-1.92L147.39-1.92L148.10-16.83L148.10-16.83Q148.10-22.14 146.88-24.06L146.88-24.06L146.88-24.06Q146.50-24.70 145.98-25.02L145.98-25.02L145.98-25.02Q145.60-25.15 145.60-25.54L145.60-25.54L145.60-25.54Q145.60-26.69 148.86-27.78L148.86-27.78L148.86-27.78Q152.13-28.86 153.63-28.86L153.63-28.86L153.63-28.86Q155.14-28.86 155.20-28.10L155.20-28.10L155.20-28.10Q155.20-26.82 154.85-20.83L154.85-20.83L154.85-20.83Q154.50-14.85 154.50-8.26L154.50-8.26L154.50-8.26Q154.50-1.66 155.26-0.06L155.26-0.06L155.26-0.06Q155.46 0.26 155.46 0.58L155.46 0.58L155.46 0.58Q155.46 1.41 153.02 1.41L153.02 1.41L153.02 1.41Q150.59 1.41 148.03 0.13L148.03 0.13L148.03 0.13Q147.39-0.19 147.39-1.92ZM180.74-19.20L180.74-19.20L180.61-11.01L180.61-11.01Q180.61-2.50 182.46-0.77L182.46-0.77L182.46-0.77Q182.72-0.51 182.72-0.19L182.72-0.19L182.72-0.19Q182.72 0.77 178.59 0.77L178.59 0.77L178.59 0.77Q174.46 0.77 174.21-1.66L174.21-1.66L174.21-1.66Q174.14-2.24 174.14-4.03L174.14-4.03L174.40-14.27L174.40-14.27Q174.40-14.72 173.89-14.72L173.89-14.72L173.89-14.72Q170.82-14.72 168.13-12.99L168.13-12.99L168.13-12.99Q165.44-11.26 165.44-8.58L165.44-8.58L165.44-8.58Q165.44-7.17 166.21-6.21L166.21-6.21L166.21-6.21Q166.98-5.25 168.10-5.25L168.10-5.25L168.10-5.25Q169.22-5.25 169.95-5.70L169.95-5.70L169.95-5.70Q170.69-6.14 170.82-6.21L170.82-6.21L170.82-6.21Q171.90-6.08 171.90-3.94L171.90-3.94L171.90-3.94Q171.90-1.79 169.92-0.48L169.92-0.48L169.92-0.48Q167.94 0.83 165.76 0.83L165.76 0.83L165.76 0.83Q163.58 0.83 162.02 0.06L162.02 0.06L162.02 0.06Q160.45-0.70 159.74-1.66L159.74-1.66L159.74-1.66Q159.04-2.62 158.59-3.84L158.59-3.84L158.59-3.84Q158.14-5.31 158.14-6.40L158.14-6.40L158.14-6.40Q158.14-10.88 160.96-13.57L160.96-13.57L160.96-13.57Q163.78-16.26 168.19-17.41L168.19-17.41L168.19-17.41Q174.02-18.56 174.27-19.52L174.27-19.52L174.27-19.52Q174.46-20.22 174.46-21.89L174.46-21.89L174.46-21.89Q174.46-25.28 171.01-25.28L171.01-25.28L171.01-25.28Q169.54-25.28 168.38-24.35L168.38-24.35L168.38-24.35Q167.23-23.42 167.23-22.02L167.23-22.02L167.62-20.48L167.62-20.48Q167.49-19.39 165.31-19.20L165.31-19.20L164.61-19.14L164.61-19.14Q162.69-19.14 161.57-20.10L161.57-20.10L161.57-20.10Q160.45-21.06 160.45-22.66L160.45-22.66L160.45-22.66Q160.45-23.68 161.12-24.93L161.12-24.93L161.12-24.93Q161.79-26.18 162.82-26.94L162.82-26.94L162.82-26.94Q163.84-27.71 165.98-28.32L165.98-28.32L165.98-28.32Q168.13-28.93 170.11-28.93L170.11-28.93L170.11-28.93Q172.10-28.93 173.18-28.80L173.18-28.80L173.18-28.80Q174.27-28.67 176.16-28.19L176.16-28.19L176.16-28.19Q178.05-27.71 179.30-26.37L179.30-26.37L179.30-26.37Q180.54-25.02 180.64-23.52L180.64-23.52L180.64-23.52Q180.74-22.02 180.74-19.20ZM184.64 0.45L184.64 0.45L184.64 0.45Q185.79-6.46 185.79-16.13L185.79-16.13L185.79-16.13Q185.79-25.79 185.22-28.67L185.22-28.67L185.22-28.67Q185.22-29.50 187.14-29.50L187.14-29.50L187.14-29.50Q190.08-29.50 191.04-27.26L191.04-27.26L191.04-27.26Q191.10-27.07 191.36-27.07L191.36-27.07L191.36-27.07Q191.62-27.07 191.74-27.20L191.74-27.20L191.74-27.20Q193.73-29.25 197.89-29.25L197.89-29.25L197.89-29.25Q202.05-29.25 204.48-27.14L204.48-27.14L204.48-27.14Q206.91-25.02 206.91-20.99L206.91-20.99L206.91-20.99Q206.91-18.56 206.50-14.08L206.50-14.08L206.50-14.08Q206.08-9.60 206.08-7.42L206.08-7.42L206.08-7.42Q206.08-2.24 207.81 0.06L207.81 0.06L207.81 0.06Q208.06 0.38 208.06 0.70L208.06 0.70L208.06 0.70Q208.06 1.54 206.27 1.54L206.27 1.54L206.27 1.54Q198.34 1.54 198.34-5.50L198.34-5.50L198.34-5.50Q198.34-8.19 199.55-12.99L199.55-12.99L199.55-12.99Q200.77-17.79 200.77-20.29L200.77-20.29L200.77-20.29Q200.77-25.41 196.54-25.41L196.54-25.41L196.54-25.41Q194.50-25.41 193.44-24.19L193.44-24.19L193.44-24.19Q192.38-22.98 192.26-21.41L192.26-21.41L192.26-21.41Q192.13-19.84 192.13-15.49L192.13-15.49L192.13-15.49Q192.13-8.83 192.58-3.90L192.58-3.90L192.70-2.50L192.70-2.50Q192.70-0.70 190.37 0.29L190.37 0.29L190.37 0.29Q188.03 1.28 186.34 1.28L186.34 1.28L186.34 1.28Q184.64 1.28 184.64 0.45ZM229.25-11.78L228.42-14.98L228.42-14.98Q228.03-16.38 226.37-24.13L226.37-24.13L226.37-24.13Q224.70-31.87 222.98-36.48L222.98-36.48L222.98-36.48Q221.25-41.09 218.88-42.62L218.88-42.62L218.88-42.62Q218.24-42.94 218.24-43.46L218.24-43.46L218.24-43.46Q218.24-44.67 221.70-45.44L221.70-45.44L221.70-45.44Q225.15-46.21 227.04-46.21L227.04-46.21L227.04-46.21Q228.93-46.21 229.31-45.12L229.31-45.12L229.31-45.12Q230.46-42.75 232.26-34.50L232.26-34.50L232.26-34.50Q235.90-17.22 237.63-12.74L237.63-12.74L237.63-12.74Q238.02-11.84 238.59-11.84L238.59-11.84L238.59-11.84Q239.17-11.84 239.78-12.96L239.78-12.96L239.78-12.96Q240.38-14.08 241.44-16.16L241.44-16.16L241.44-16.16Q242.50-18.24 244.29-23.55L244.29-23.55L244.29-23.55Q246.08-28.86 246.08-32.77L246.08-32.77L246.08-32.77Q246.08-38.78 242.11-41.28L242.11-41.28L242.11-41.28Q241.79-41.66 241.79-42.11L241.79-42.11L241.79-42.11Q241.79-43.46 245.50-44.80L245.50-44.80L245.50-44.80Q249.22-46.14 252.22-46.14L252.22-46.14L252.22-46.14Q254.21-46.14 254.21-44.29L254.21-44.29L254.21-44.29Q254.21-38.53 251.90-30.94L251.90-30.94L251.90-30.94Q249.60-23.36 246.40-16.86L246.40-16.86L246.40-16.86Q243.20-10.37 240.45-5.63L240.45-5.63L240.45-5.63Q236.10 1.73 234.94 1.73L234.94 1.73L234.94 1.73Q234.37 1.73 233.86 0.83L233.86 0.83L233.86 0.83Q231.94-1.92 229.25-11.78L229.25-11.78ZM274.50-19.20L274.50-19.20L274.37-11.01L274.37-11.01Q274.37-2.50 276.22-0.77L276.22-0.77L276.22-0.77Q276.48-0.51 276.48-0.19L276.48-0.19L276.48-0.19Q276.48 0.77 272.35 0.77L272.35 0.77L272.35 0.77Q268.22 0.77 267.97-1.66L267.97-1.66L267.97-1.66Q267.90-2.24 267.90-4.03L267.90-4.03L268.16-14.27L268.16-14.27Q268.16-14.72 267.65-14.72L267.65-14.72L267.65-14.72Q264.58-14.72 261.89-12.99L261.89-12.99L261.89-12.99Q259.20-11.26 259.20-8.58L259.20-8.58L259.20-8.58Q259.20-7.17 259.97-6.21L259.97-6.21L259.97-6.21Q260.74-5.25 261.86-5.25L261.86-5.25L261.86-5.25Q262.98-5.25 263.71-5.70L263.71-5.70L263.71-5.70Q264.45-6.14 264.58-6.21L264.58-6.21L264.58-6.21Q265.66-6.08 265.66-3.94L265.66-3.94L265.66-3.94Q265.66-1.79 263.68-0.48L263.68-0.48L263.68-0.48Q261.70 0.83 259.52 0.83L259.52 0.83L259.52 0.83Q257.34 0.83 255.78 0.06L255.78 0.06L255.78 0.06Q254.21-0.70 253.50-1.66L253.50-1.66L253.50-1.66Q252.80-2.62 252.35-3.84L252.35-3.84L252.35-3.84Q251.90-5.31 251.90-6.40L251.90-6.40L251.90-6.40Q251.90-10.88 254.72-13.57L254.72-13.57L254.72-13.57Q257.54-16.26 261.95-17.41L261.95-17.41L261.95-17.41Q267.78-18.56 268.03-19.52L268.03-19.52L268.03-19.52Q268.22-20.22 268.22-21.89L268.22-21.89L268.22-21.89Q268.22-25.28 264.77-25.28L264.77-25.28L264.77-25.28Q263.30-25.28 262.14-24.35L262.14-24.35L262.14-24.35Q260.99-23.42 260.99-22.02L260.99-22.02L261.38-20.48L261.38-20.48Q261.25-19.39 259.07-19.20L259.07-19.20L258.37-19.14L258.37-19.14Q256.45-19.14 255.33-20.10L255.33-20.10L255.33-20.10Q254.21-21.06 254.21-22.66L254.21-22.66L254.21-22.66Q254.21-23.68 254.88-24.93L254.88-24.93L254.88-24.93Q255.55-26.18 256.58-26.94L256.58-26.94L256.58-26.94Q257.60-27.71 259.74-28.32L259.74-28.32L259.74-28.32Q261.89-28.93 263.87-28.93L263.87-28.93L263.87-28.93Q265.86-28.93 266.94-28.80L266.94-28.80L266.94-28.80Q268.03-28.67 269.92-28.19L269.92-28.19L269.92-28.19Q271.81-27.71 273.06-26.37L273.06-26.37L273.06-26.37Q274.30-25.02 274.40-23.52L274.40-23.52L274.40-23.52Q274.50-22.02 274.50-19.20ZM278.40 0.45L278.40 0.45L278.40 0.45Q279.55-6.46 279.55-16.13L279.55-16.13L279.55-16.13Q279.55-25.79 278.98-28.67L278.98-28.67L278.98-28.67Q278.98-29.50 280.90-29.50L280.90-29.50L280.90-29.50Q283.84-29.50 284.80-27.26L284.80-27.26L284.80-27.26Q284.86-27.07 285.12-27.07L285.12-27.07L285.12-27.07Q285.38-27.07 285.50-27.20L285.50-27.20L285.50-27.20Q287.49-29.25 291.65-29.25L291.65-29.25L291.65-29.25Q295.81-29.25 298.24-27.14L298.24-27.14L298.24-27.14Q300.67-25.02 300.67-20.99L300.67-20.99L300.67-20.99Q300.67-18.56 300.26-14.08L300.26-14.08L300.26-14.08Q299.84-9.60 299.84-7.42L299.84-7.42L299.84-7.42Q299.84-2.24 301.57 0.06L301.57 0.06L301.57 0.06Q301.82 0.38 301.82 0.70L301.82 0.70L301.82 0.70Q301.82 1.54 300.03 1.54L300.03 1.54L300.03 1.54Q292.10 1.54 292.10-5.50L292.10-5.50L292.10-5.50Q292.10-8.19 293.31-12.99L293.31-12.99L293.31-12.99Q294.53-17.79 294.53-20.29L294.53-20.29L294.53-20.29Q294.53-25.41 290.30-25.41L290.30-25.41L290.30-25.41Q288.26-25.41 287.20-24.19L287.20-24.19L287.20-24.19Q286.14-22.98 286.02-21.41L286.02-21.41L286.02-21.41Q285.89-19.84 285.89-15.49L285.89-15.49L285.89-15.49Q285.89-8.83 286.34-3.90L286.34-3.90L286.46-2.50L286.46-2.50Q286.46-0.70 284.13 0.29L284.13 0.29L284.13 0.29Q281.79 1.28 280.10 1.28L280.10 1.28L280.10 1.28Q278.40 1.28 278.40 0.45ZM337.79-24.45L336.83-24.26L336.83-24.26Q336.13-24.06 336.13-23.84L336.13-23.84L336.13-23.84Q336.13-23.62 337.66-23.04L337.66-23.04L337.66-23.04Q339.20-22.46 340.58-21.25L340.58-21.25L340.58-21.25Q341.95-20.03 342.53-18.30L342.53-18.30L342.53-18.30Q343.42-15.68 343.42-12.67L343.42-12.67L343.42-12.67Q343.42-9.66 343.87-7.71L343.87-7.71L343.87-7.71Q344.32-5.76 344.96-4.74L344.96-4.74L344.96-4.74Q346.24-2.56 347.33-2.05L347.33-2.05L347.78-1.79L347.78-1.79Q348.16-1.54 348.16-1.15L348.16-1.15L348.16-1.15Q348.16-0.19 345.02 0.54L345.02 0.54L345.02 0.54Q341.89 1.28 340.16 1.28L340.16 1.28L340.16 1.28Q336.77 1.28 335.84-1.44L335.84-1.44L335.84-1.44Q334.91-4.16 334.91-10.75L334.91-10.75L334.91-14.27L334.91-14.27Q334.91-19.84 331.58-21.38L331.58-21.38L331.58-21.38Q330.30-21.95 328.51-21.95L328.51-21.95L328.45-21.95L328.45-21.95Q327.87-21.95 327.87-23.07L327.87-23.07L327.87-23.07Q327.87-24.19 328.54-25.34L328.54-25.34L328.54-25.34Q329.22-26.50 329.73-26.50L329.73-26.50L329.73-26.50Q331.84-26.50 333.38-27.30L333.38-27.30L333.38-27.30Q334.91-28.10 335.62-29.25L335.62-29.25L335.62-29.25Q337.09-31.68 337.22-33.41L337.22-33.41L337.22-34.24L337.22-34.24Q337.22-36.61 336.45-38.24L336.45-38.24L336.45-38.24Q335.68-39.87 334.53-40.51L334.53-40.51L334.53-40.51Q332.61-41.54 330.62-41.54L330.62-41.54L330.62-41.54Q328.64-41.54 327.36-41.22L327.36-41.22L327.36-41.22Q325.57-40.70 325.57-40.13L325.57-40.13L325.57-40.13Q324.99-31.74 324.99-23.97L324.99-23.97L324.99-23.97Q324.99-16.19 325.22-12.06L325.22-12.06L325.22-12.06Q325.44-7.94 325.66-5.41L325.66-5.41L325.66-5.41Q325.89-2.88 325.89-2.43L325.89-2.43L325.89-2.43Q325.89-1.60 325.44-1.28L325.44-1.28L325.44-1.28Q322.82 1.15 317.18 1.15L317.18 1.15L317.18 1.15Q316.22 1.15 316.22 0.51L316.22 0.51L316.22 0.51Q316.22 0.32 316.42-0.38L316.42-0.38L316.42-0.38Q317.06-1.86 317.34-9.73L317.34-9.73L317.34-9.73Q317.63-17.60 317.63-24.10L317.63-24.10L317.63-24.10Q317.63-30.59 317.38-34.62L317.38-34.62L317.38-34.62Q316.99-40.70 316.10-41.92L316.10-41.92L316.10-41.92Q315.39-42.82 315.39-43.17L315.39-43.17L315.39-43.17Q315.39-43.52 316.10-43.90L316.10-43.90L316.10-43.90Q320.19-45.82 330.94-45.82L330.94-45.82L330.94-45.82Q339.58-45.82 343.87-40.96L343.87-40.96L343.87-40.96Q346.18-38.27 346.18-34.24L346.18-34.24L346.18-34.24Q346.18-31.81 345.22-29.89L345.22-29.89L345.22-29.89Q344.26-27.97 342.85-26.94L342.85-26.94L342.85-26.94Q340.16-24.90 337.79-24.45L337.79-24.45ZM355.52-24.13L355.52-24.13L355.52-24.13Q353.86-24.06 353.12-24.03L353.12-24.03L353.12-24.03Q352.38-24 352.38-24.38L352.38-24.38L352.38-24.38Q352.38-24.77 352.77-25.15L352.77-25.15L352.77-25.15Q356.86-28.93 366.59-28.93L366.59-28.93L366.59-28.93Q369.92-28.93 371.84-28.35L371.84-28.35L372.48-28.16L372.48-28.16Q373.25-27.84 373.25-27.46L373.25-27.46L373.25-27.46Q373.25-27.14 372.80-26.94L372.80-26.94L372.80-26.94Q371.07-26.43 369.47-25.31L369.47-25.31L369.47-25.31Q367.87-24.19 367.87-23.74L367.87-23.74L368.26-23.30L368.26-23.30Q370.30-22.14 371.42-19.65L371.42-19.65L371.42-19.65Q372.54-17.15 372.67-15.23L372.67-15.23L372.80-13.25L372.80-13.25Q372.80-6.91 369.28-2.82L369.28-2.82L369.28-2.82Q365.76 1.28 359.68 1.28L359.68 1.28L359.68 1.28Q356.61 1.28 354.37 0.19L354.37 0.19L354.37 0.19Q352.13-0.90 351.07-2.27L351.07-2.27L351.07-2.27Q350.02-3.65 349.38-5.38L349.38-5.38L349.38-5.38Q348.61-7.74 348.61-10.27L348.61-10.27L348.61-10.27Q348.61-12.80 349.47-15.36L349.47-15.36L349.47-15.36Q350.34-17.92 351.46-19.14L351.46-19.14L351.46-19.14Q352.58-20.35 353.98-21.12L353.98-21.12L353.98-21.12Q355.78-22.08 356.86-22.08L356.86-22.08L356.86-22.08Q357.95-22.08 357.95-21.63L357.95-21.63L357.57-20.99L357.57-20.99Q356.16-19.33 355.55-16.64L355.55-16.64L355.55-16.64Q354.94-13.95 354.94-11.87L354.94-11.87L354.94-11.87Q354.94-9.79 355.46-7.74L355.46-7.74L355.46-7.74Q355.97-5.70 356.61-4.70L356.61-4.70L356.61-4.70Q357.25-3.71 358.08-3.20L358.08-3.20L358.08-3.20Q359.30-2.43 360.64-2.43L360.64-2.43L360.64-2.43Q361.98-2.43 363.26-3.49L363.26-3.49L363.26-3.49Q364.54-4.54 365.12-6.27L365.12-6.27L365.12-6.27Q366.27-9.47 366.27-12.86L366.27-12.86L366.27-12.86Q366.27-18.24 363.55-21.18L363.55-21.18L363.55-21.18Q360.83-24.13 355.52-24.13ZM382.40-24.13L382.40-24.13L382.40-24.13Q380.74-24.06 380.00-24.03L380.00-24.03L380.00-24.03Q379.26-24 379.26-24.38L379.26-24.38L379.26-24.38Q379.26-24.77 379.65-25.15L379.65-25.15L379.65-25.15Q383.74-28.93 393.47-28.93L393.47-28.93L393.47-28.93Q396.80-28.93 398.72-28.35L398.72-28.35L399.36-28.16L399.36-28.16Q400.13-27.84 400.13-27.46L400.13-27.46L400.13-27.46Q400.13-27.14 399.68-26.94L399.68-26.94L399.68-26.94Q397.95-26.43 396.35-25.31L396.35-25.31L396.35-25.31Q394.75-24.19 394.75-23.74L394.75-23.74L395.14-23.30L395.14-23.30Q397.18-22.14 398.30-19.65L398.30-19.65L398.30-19.65Q399.42-17.15 399.55-15.23L399.55-15.23L399.68-13.25L399.68-13.25Q399.68-6.91 396.16-2.82L396.16-2.82L396.16-2.82Q392.64 1.28 386.56 1.28L386.56 1.28L386.56 1.28Q383.49 1.28 381.25 0.19L381.25 0.19L381.25 0.19Q379.01-0.90 377.95-2.27L377.95-2.27L377.95-2.27Q376.90-3.65 376.26-5.38L376.26-5.38L376.26-5.38Q375.49-7.74 375.49-10.27L375.49-10.27L375.49-10.27Q375.49-12.80 376.35-15.36L376.35-15.36L376.35-15.36Q377.22-17.92 378.34-19.14L378.34-19.14L378.34-19.14Q379.46-20.35 380.86-21.12L380.86-21.12L380.86-21.12Q382.66-22.08 383.74-22.08L383.74-22.08L383.74-22.08Q384.83-22.08 384.83-21.63L384.83-21.63L384.45-20.99L384.45-20.99Q383.04-19.33 382.43-16.64L382.43-16.64L382.43-16.64Q381.82-13.95 381.82-11.87L381.82-11.87L381.82-11.87Q381.82-9.79 382.34-7.74L382.34-7.74L382.34-7.74Q382.85-5.70 383.49-4.70L383.49-4.70L383.49-4.70Q384.13-3.71 384.96-3.20L384.96-3.20L384.96-3.20Q386.18-2.43 387.52-2.43L387.52-2.43L387.52-2.43Q388.86-2.43 390.14-3.49L390.14-3.49L390.14-3.49Q391.42-4.54 392-6.27L392-6.27L392-6.27Q393.15-9.47 393.15-12.86L393.15-12.86L393.15-12.86Q393.15-18.24 390.43-21.18L390.43-21.18L390.43-21.18Q387.71-24.13 382.40-24.13ZM414.34 17.73L414.34 17.73L414.34 17.73Q414.34 18.50 413.57 18.50L413.57 18.50L413.50 18.50L413.50 18.50Q411.39 18.50 408.74 17.02L408.74 17.02L408.74 17.02Q406.08 15.55 406.08 13.63L406.08 13.63L406.08 13.63Q406.08 11.71 408.51 6.94L408.51 6.94L408.51 6.94Q410.94 2.18 410.94 0.58L410.94 0.58L410.94 0.58Q410.94-1.15 409.28-5.63L409.28-5.63L409.28-5.63Q407.17-11.46 405.92-15.10L405.92-15.10L405.92-15.10Q404.67-18.75 403.23-21.54L403.23-21.54L403.23-21.54Q401.79-24.32 401.15-24.83L401.15-24.83L400.51-25.28L400.51-25.28Q399.81-25.66 399.81-26.11L399.81-26.11L399.81-26.11Q399.81-27.01 402.59-27.94L402.59-27.94L402.59-27.94Q405.38-28.86 407.49-28.86L407.49-28.86L407.49-28.86Q408.45-28.86 409.09-27.33L409.09-27.33L409.09-27.33Q410.24-24.32 411.58-19.01L411.58-19.01L411.58-19.01Q414.85-8.13 415.68-8.13L415.68-8.13L415.68-8.13Q416.26-8.13 418.02-12.61L418.02-12.61L418.02-12.61Q419.78-17.09 419.78-19.84L419.78-19.84L419.78-19.84Q419.78-24.64 416.96-25.47L416.96-25.47L416.96-25.47Q416.32-25.60 416.32-26.11L416.32-26.11L416.32-26.11Q416.32-27.26 419.33-28.32L419.33-28.32L419.33-28.32Q422.34-29.38 424.77-29.38L424.77-29.38L424.77-29.38Q426.88-29.38 426.88-26.62L426.88-26.62L426.88-26.62Q426.88-24.51 425.98-21.70L425.98-21.70L425.98-21.70Q425.09-18.88 424.32-17.25L424.32-17.25L424.32-17.25Q423.55-15.62 420.51-9.70L420.51-9.70L420.51-9.70Q417.47-3.78 415.49 0.70L415.49 0.70L415.49 0.70Q413.31 6.08 413.31 11.65L413.31 11.65L413.31 11.65Q413.31 14.59 413.82 16.06L413.82 16.06L413.82 16.06Q414.34 17.54 414.34 17.73ZM433.98-16.26L433.98-16.26L434.05-14.66L434.05-14.66Q434.05-14.27 434.56-14.27L434.56-14.27L434.56-14.27Q436.61-14.46 438.14-15.33L438.14-15.33L438.14-15.33Q439.68-16.19 440.45-17.28L440.45-17.28L440.45-17.28Q441.98-19.65 442.11-21.38L442.11-21.38L442.18-22.14L442.18-22.14Q442.18-25.60 439.42-25.60L439.42-25.60L439.42-25.60Q437.38-25.60 436.10-23.81L436.10-23.81L436.10-23.81Q433.98-20.99 433.98-16.26ZM447.94-7.74L447.94-7.74L447.94-7.74Q447.94-5.31 446.94-3.49L446.94-3.49L446.94-3.49Q445.95-1.66 444.70-0.80L444.70-0.80L444.70-0.80Q443.46 0.06 441.79 0.58L441.79 0.58L441.79 0.58Q439.68 1.22 437.76 1.22L437.76 1.22L437.76 1.22Q432.38 1.22 429.82-2.82L429.82-2.82L429.82-2.82Q427.26-6.85 427.26-13.09L427.26-13.09L427.26-13.09Q427.26-19.33 430.43-24.19L430.43-24.19L430.43-24.19Q433.60-29.06 439.94-29.06L439.94-29.06L439.94-29.06Q445.70-29.06 447.74-25.02L447.74-25.02L447.74-25.02Q448.58-23.49 448.58-22.11L448.58-22.11L448.58-22.11Q448.58-20.74 448.45-19.94L448.45-19.94L448.45-19.94Q448.32-19.14 447.55-17.54L447.55-17.54L447.55-17.54Q446.78-15.94 445.50-14.66L445.50-14.66L445.50-14.66Q444.22-13.38 441.47-12.22L441.47-12.22L441.47-12.22Q438.72-11.07 435.01-10.69L435.01-10.69L435.01-10.69Q434.50-10.69 434.50-10.24L434.50-10.24L434.50-10.24Q434.50-9.66 434.91-8.54L434.91-8.54L434.91-8.54Q435.33-7.42 435.84-6.66L435.84-6.66L435.84-6.66Q437.25-4.86 440-4.86L440-4.86L440-4.86Q442.75-4.86 444.67-6.66L444.67-6.66L444.67-6.66Q445.70-7.62 446.34-9.02L446.34-9.02L446.34-9.02Q446.59-9.54 447.01-9.54L447.01-9.54L447.01-9.54Q447.42-9.54 447.68-8.83L447.68-8.83L447.68-8.83Q447.94-8.13 447.94-7.74ZM451.46 0.45L451.46 0.45L451.46 0.45Q452.61-6.46 452.61-16.13L452.61-16.13L452.61-16.13Q452.61-25.79 452.03-28.67L452.03-28.67L452.03-28.67Q452.03-29.50 453.95-29.50L453.95-29.50L453.95-29.50Q456.90-29.50 457.86-27.26L457.86-27.26L457.86-27.26Q457.92-27.07 458.18-27.07L458.18-27.07L458.18-27.07Q458.43-27.07 458.56-27.20L458.56-27.20L458.56-27.20Q460.54-29.25 464.70-29.25L464.70-29.25L464.70-29.25Q468.86-29.25 471.30-27.14L471.30-27.14L471.30-27.14Q473.73-25.02 473.73-20.99L473.73-20.99L473.73-20.99Q473.73-18.56 473.31-14.08L473.31-14.08L473.31-14.08Q472.90-9.60 472.90-7.42L472.90-7.42L472.90-7.42Q472.90-2.24 474.62 0.06L474.62 0.06L474.62 0.06Q474.88 0.38 474.88 0.70L474.88 0.70L474.88 0.70Q474.88 1.54 473.09 1.54L473.09 1.54L473.09 1.54Q465.15 1.54 465.15-5.50L465.15-5.50L465.15-5.50Q465.15-8.19 466.37-12.99L466.37-12.99L466.37-12.99Q467.58-17.79 467.58-20.29L467.58-20.29L467.58-20.29Q467.58-25.41 463.36-25.41L463.36-25.41L463.36-25.41Q461.31-25.41 460.26-24.19L460.26-24.19L460.26-24.19Q459.20-22.98 459.07-21.41L459.07-21.41L459.07-21.41Q458.94-19.84 458.94-15.49L458.94-15.49L458.94-15.49Q458.94-8.83 459.39-3.90L459.39-3.90L459.52-2.50L459.52-2.50Q459.52-0.70 457.18 0.29L457.18 0.29L457.18 0.29Q454.85 1.28 453.15 1.28L453.15 1.28L453.15 1.28Q451.46 1.28 451.46 0.45Z" fill="#ffd5af"></path></g></g><style>text {
  font-size: 64px;
  font-family: Arial Black;
  dominant-baseline: central;
  text-anchor: middle;
}</style></svg>