<?xml version="1.0" standalone="no"?>
<!DOCTYPE svg PUBLIC "-//W3C//DTD SVG 20010904//EN"
 "http://www.w3.org/TR/2001/REC-SVG-20010904/DTD/svg10.dtd">
<svg version="1.0" xmlns="http://www.w3.org/2000/svg"
 width="350.000000pt" height="302.000000pt" viewBox="0 0 350.000000 302.000000"
 preserveAspectRatio="xMidYMid meet">

<g transform="translate(0.000000,302.000000) scale(0.100000,-0.100000)"
fill="#000000" stroke="none">
<path d="M1665 2383 c-135 -21 -258 -79 -338 -157 -163 -160 -196 -437 -73
-605 69 -94 164 -151 381 -231 182 -67 363 -155 446 -218 113 -86 157 -166
143 -260 l-7 -47 23 20 c12 11 35 46 51 77 57 112 74 257 44 371 -43 164 -114
228 -462 413 -226 121 -288 160 -338 216 -48 52 -68 101 -68 163 0 126 102
221 250 233 230 18 392 -117 484 -405 13 -40 27 -73 31 -73 4 0 8 86 8 191 l0
190 -52 23 c-166 72 -406 118 -523 99z"/>
<path d="M1154 1113 c3 -49 9 -147 12 -220 l7 -132 71 -31 c160 -72 353 -120
479 -120 77 0 64 13 -30 29 -134 23 -262 102 -355 218 -59 74 -130 208 -153
288 -25 84 -39 70 -31 -32z"/>
</g>
</svg>
